{"title":"Stranger.by.the.Lake[L.inconnu.du.Lac].2013.DVDRip.x264.HORiZON-","uid":9243832,"size":1350550092,"categoryP":"video","categoryS":"movies","magnet":"?xt=urn:btih:cc293e102db006a64af17616f56bf5546702b2cf&amp;dn=Stranger.by.the.Lake%5BL.inconnu.du.Lac%5D.2013.DVDRip.x264.HORiZON-&amp;tr=udp%3A%2F%2Ftracker.openbittorrent.com%3A80&amp;tr=udp%3A%2F%2Fopen.demonii.com%3A1337&amp;tr=udp%3A%2F%2Ftracker.coppersurfer.tk%3A6969&amp;tr=udp%3A%2F%2Fexodus.desync.com%3A6969","seeders":9,"leechers":0,"uploader":"lletaif","files":1,"time":1385336477,"description":"Title:\nStranger by the Lake Aka L'inconnu du Lac\n\nCountry:\nFrance/2013\n\nLanguage:\nFrench\n\nNot subtitle\n\nIMDB: &lt;a href=&quot;\nhttp://www.imdb.com/title/tt2852458/?ref_=fn_al_tt_1&quot; rel=&quot;nofollow&quot; target=&quot;_NEW&quot;&gt;\nhttp://www.imdb.com/title/tt2852458/?ref_=fn_al_tt_1&lt;/a&gt;\n\nAwards:\nWon Queer Palm - Alain Guiraudie, in Cannes Film Festival 2013\n\nWon Un Certain Regard - Directing Prize - Alain Guiraudie, in Cannes Film Festival 2013.\n\nSynopsis:\nSummertime. A cruising spot for men, tucked away on the shores of a lake. Franck falls in love with Michel. An attractive, potent and lethally dangerous man. Franck knows this, but wants to live out his passion anyway.  \n\n\n\nMedia Info:\n\nComplete name                            : Stranger.by.the.Lake[L.inconnu.du.Lac].2013.DVDRip.x264.HORiZON-ArtSubs\nFormat                                   : Matroska\nFormat version                           : Version 2\nFile size                                : 1.26 GiB\nDuration                                 : 1h 36mn\nOverall bit rate                         : 1 875 Kbps\nWriting application                      : HandBrake 0.9.9\nWriting library                          : libmkv 0.6.5\n\nVideo\nID                                       : 1\nFormat                                   : AVC\nFormat/Info                              : Advanced Video Codec\nFormat profile                           : &lt;a class=&quot;__cf_email__&quot; href=&quot;/cdn-cgi/l/email-protection&quot; data-cfemail=&quot;420a2b252a020e716c73&quot;&gt;[email&amp;#160;protected]&lt;/a&gt;&lt;script cf-hash='f9e31' type=&quot;text/javascript&quot;&gt;\n/* &lt;![CDATA[ */!function(){try{var t=&quot;currentScript&quot;in document?document.currentScript:function(){for(var t=document.getElementsByTagName(&quot;script&quot;),e=t.length;e--;)if(t[e].getAttribute(&quot;cf-hash&quot;))return t[e]}();if(t&amp;&amp;t.previousSibling){var e,r,n,i,c=t.previousSibling,a=c.getAttribute(&quot;data-cfemail&quot;);if(a){for(e=&quot;&quot;,r=parseInt(a.substr(0,2),16),n=2;a.length-n;n+=2)i=parseInt(a.substr(n,2),16)^r,e+=String.fromCharCode(i);e=document.createTextNode(e),c.parentNode.replaceChild(e,c)}}}catch(u){}}();/* ]]&gt; */&lt;/script&gt;\nFormat settings, CABAC                   : Yes\nFormat settings, ReFrames                : 14 frames\nCodec ID                                 : V_MPEG4/ISO/AVC\nDuration                                 : 1h 36mn\nBit rate                                 : 1 389 Kbps\nWidth                                    : 718 pixels\nHeight                                   : 428 pixels\nDisplay aspect ratio                     : 2.40:1\nFrame rate mode                          : Constant\nFrame rate                               : 25.000 fps\nColor space                              : YUV\nChroma subsampling                       : 4:2:0\nBit depth                                : 8 bits\nScan type                                : Progressive\nBits/(Pixel*Frame)                       : 0.181\nStream size                              : 955 MiB (74%)\nWriting library                          : x264 core 130 r2273 b3065e6\nEncoding settings                        : cabac=1 // deblock=1:-1:-1 / analyse=0x3:0x133 / me=umh / subme=10 / psy=1 / psy_rd=1.00:0.15 // me_range=24 / chroma_me=1 / trellis=2 / 8x8dct=1 / cqm=0 / deadzone=21,11 / fast_pskip=1 / chroma_qp_offset=-3 / threads=6 / lookahead_threads=1 / sliced_threads=0 / nr=0 / decimate=1 / interlaced=0 / bluray_compat=0 / constrained_intra=0 / bframes=8 / b_pyramid=2 / b_adapt=2 / b_bias=0 / direct=3 / weightb=1 / open_gop=0 / weightp=2 / keyint=250 / keyint_min=25 / scenecut=40 / intra_refresh=0 / rc_lookahead=60 / rc=crf / mbtree=1 / crf=19.0 / qcomp=0.60 / qpmin=0 / qpmax=69 / qpstep=4 / vbv_maxrate=17500 / vbv_bufsize=17500 / crf_max=0.0 / nal_hrd=none / ip_ratio=1.40 / aq=1:1.00\nLanguage                                 : English\nDefault                                  : Yes\nForced                                   : No\nColor primaries                          : BT.601 PAL\nTransfer characteristics                 : BT.709\nMatrix coefficients                      : BT.601\n\nAudio\nID                                       : 2\nFormat                                   : AC-3\nFormat/Info                              : Audio Coding 3\nMode extension                           : CM (complete main)\nFormat settings, Endianness              : Big\nCodec ID                                 : A_AC3\nDuration                                 : 1h 36mn\nBit rate mode                            : Constant\nBit rate                                 : 448 Kbps\nChannel(s)                               : 6 channels\nChannel positions                        : Front: L C R, Side: L R, LFE\nSampling rate                            : 48.0 KHz\nBit depth                                : 16 bits\nCompression mode                         : Lossy\nStream size                              : 308 MiB (24%)\nLanguage                                 : French\nDefault                                  : Yes\nForced                                   : No\n\n","torrent":{"xt":"urn:btih:cc293e102db006a64af17616f56bf5546702b2cf","amp;dn":"Stranger.by.the.Lake%5BL.inconnu.du.Lac%5D.2013.DVDRip.x264.HORiZON-","amp;tr":["udp%3A%2F%2Ftracker.openbittorrent.com%3A80","udp%3A%2F%2Fopen.demonii.com%3A1337","udp%3A%2F%2Ftracker.coppersurfer.tk%3A6969","udp%3A%2F%2Fexodus.desync.com%3A6969"],"infoHash":"cc293e102db006a64af17616f56bf5546702b2cf","infoHashBuffer":{"type":"Buffer","data":[204,41,62,16,45,176,6,166,74,241,118,22,245,107,245,84,103,2,178,207]},"announce":[],"urlList":[]}}